<mxfile host="app.diagrams.net" agent="Mozilla/5.0 (Windows NT 10.0; Win64; x64) AppleWebKit/537.36 (KHTML, like Gecko) Chrome/132.0.0.0 Safari/537.36" version="26.0.11">
  <diagram name="Страница — 1" id="aW0fPGZtIxX3X3xGRwqq">
    <mxGraphModel dx="1290" dy="565" grid="1" gridSize="10" guides="1" tooltips="1" connect="1" arrows="1" fold="1" page="1" pageScale="1" pageWidth="100000000" pageHeight="10000000000" math="0" shadow="0">
      <root>
        <mxCell id="0" />
        <mxCell id="1" parent="0" />
        <mxCell id="78s66oipbBA8OXlamapA-5" style="edgeStyle=orthogonalEdgeStyle;rounded=0;orthogonalLoop=1;jettySize=auto;html=1;exitX=0.5;exitY=1;exitDx=0;exitDy=0;" parent="1" source="78s66oipbBA8OXlamapA-1" target="78s66oipbBA8OXlamapA-3" edge="1">
          <mxGeometry relative="1" as="geometry" />
        </mxCell>
        <mxCell id="78s66oipbBA8OXlamapA-1" value="recognize_qr_code_from_camera()" style="ellipse;whiteSpace=wrap;html=1;" parent="1" vertex="1">
          <mxGeometry x="330" y="90" width="280" height="80" as="geometry" />
        </mxCell>
        <mxCell id="78s66oipbBA8OXlamapA-6" style="edgeStyle=orthogonalEdgeStyle;rounded=0;orthogonalLoop=1;jettySize=auto;html=1;exitX=0.5;exitY=1;exitDx=0;exitDy=0;entryX=0.5;entryY=0;entryDx=0;entryDy=0;" parent="1" source="78s66oipbBA8OXlamapA-3" target="78s66oipbBA8OXlamapA-4" edge="1">
          <mxGeometry relative="1" as="geometry" />
        </mxCell>
        <mxCell id="78s66oipbBA8OXlamapA-3" value="recognized_texts" style="rounded=0;whiteSpace=wrap;html=1;" parent="1" vertex="1">
          <mxGeometry x="410" y="220" width="120" height="60" as="geometry" />
        </mxCell>
        <mxCell id="78s66oipbBA8OXlamapA-9" style="edgeStyle=orthogonalEdgeStyle;rounded=0;orthogonalLoop=1;jettySize=auto;html=1;exitX=0.5;exitY=1;exitDx=0;exitDy=0;entryX=0.5;entryY=0;entryDx=0;entryDy=0;" parent="1" source="78s66oipbBA8OXlamapA-4" target="78s66oipbBA8OXlamapA-7" edge="1">
          <mxGeometry relative="1" as="geometry" />
        </mxCell>
        <mxCell id="78s66oipbBA8OXlamapA-4" value="cap = cv2.VideoCapture(0)" style="rounded=0;whiteSpace=wrap;html=1;" parent="1" vertex="1">
          <mxGeometry x="375" y="330" width="190" height="60" as="geometry" />
        </mxCell>
        <mxCell id="78s66oipbBA8OXlamapA-10" value="нет" style="edgeStyle=orthogonalEdgeStyle;rounded=0;orthogonalLoop=1;jettySize=auto;html=1;exitX=1;exitY=0.5;exitDx=0;exitDy=0;" parent="1" source="78s66oipbBA8OXlamapA-7" target="78s66oipbBA8OXlamapA-11" edge="1">
          <mxGeometry x="-0.3598" y="10" relative="1" as="geometry">
            <mxPoint x="640" y="520" as="targetPoint" />
            <mxPoint as="offset" />
          </mxGeometry>
        </mxCell>
        <mxCell id="78s66oipbBA8OXlamapA-16" value="&lt;div&gt;да&lt;/div&gt;" style="edgeStyle=orthogonalEdgeStyle;rounded=0;orthogonalLoop=1;jettySize=auto;html=1;exitX=0.5;exitY=1;exitDx=0;exitDy=0;" parent="1" source="78s66oipbBA8OXlamapA-7" target="78s66oipbBA8OXlamapA-17" edge="1">
          <mxGeometry x="-0.8182" y="20" relative="1" as="geometry">
            <mxPoint x="470.42857142857144" y="740" as="targetPoint" />
            <mxPoint as="offset" />
          </mxGeometry>
        </mxCell>
        <mxCell id="78s66oipbBA8OXlamapA-7" value="not cap.isOpened()" style="rhombus;whiteSpace=wrap;html=1;" parent="1" vertex="1">
          <mxGeometry x="400" y="430" width="140" height="80" as="geometry" />
        </mxCell>
        <mxCell id="78s66oipbBA8OXlamapA-14" style="edgeStyle=orthogonalEdgeStyle;rounded=0;orthogonalLoop=1;jettySize=auto;html=1;exitX=0.5;exitY=1;exitDx=0;exitDy=0;" parent="1" source="78s66oipbBA8OXlamapA-11" target="78s66oipbBA8OXlamapA-13" edge="1">
          <mxGeometry relative="1" as="geometry" />
        </mxCell>
        <mxCell id="78s66oipbBA8OXlamapA-11" value="&quot;Не удалось открыть камеру.&quot;" style="rounded=0;whiteSpace=wrap;html=1;" parent="1" vertex="1">
          <mxGeometry x="530" y="520" width="170" height="60" as="geometry" />
        </mxCell>
        <mxCell id="78s66oipbBA8OXlamapA-13" value="retum recognized_texts" style="ellipse;whiteSpace=wrap;html=1;" parent="1" vertex="1">
          <mxGeometry x="532.5" y="640" width="165" height="70" as="geometry" />
        </mxCell>
        <mxCell id="78s66oipbBA8OXlamapA-18" style="edgeStyle=orthogonalEdgeStyle;rounded=0;orthogonalLoop=1;jettySize=auto;html=1;exitX=0.5;exitY=1;exitDx=0;exitDy=0;" parent="1" source="78s66oipbBA8OXlamapA-17" edge="1">
          <mxGeometry relative="1" as="geometry">
            <mxPoint x="470.1428571428572" y="850" as="targetPoint" />
          </mxGeometry>
        </mxCell>
        <mxCell id="78s66oipbBA8OXlamapA-17" value="&quot;Ожидание QR-кода. Нажмите &#39;q&#39; для выхода.&quot;" style="rounded=0;whiteSpace=wrap;html=1;" parent="1" vertex="1">
          <mxGeometry x="330" y="730" width="280" height="60" as="geometry" />
        </mxCell>
        <mxCell id="78s66oipbBA8OXlamapA-21" style="edgeStyle=orthogonalEdgeStyle;rounded=0;orthogonalLoop=1;jettySize=auto;html=1;exitX=0.5;exitY=1;exitDx=0;exitDy=0;" parent="1" source="78s66oipbBA8OXlamapA-19" target="78s66oipbBA8OXlamapA-22" edge="1">
          <mxGeometry relative="1" as="geometry">
            <mxPoint x="469.5882352941177" y="980" as="targetPoint" />
          </mxGeometry>
        </mxCell>
        <mxCell id="78s66oipbBA8OXlamapA-77" style="edgeStyle=orthogonalEdgeStyle;rounded=0;orthogonalLoop=1;jettySize=auto;html=1;exitX=1;exitY=0.5;exitDx=0;exitDy=0;entryX=0.5;entryY=0;entryDx=0;entryDy=0;" parent="1" source="78s66oipbBA8OXlamapA-19" target="78s66oipbBA8OXlamapA-50" edge="1">
          <mxGeometry relative="1" as="geometry">
            <Array as="points">
              <mxPoint x="740" y="890" />
              <mxPoint x="740" y="2100" />
              <mxPoint x="470" y="2100" />
            </Array>
          </mxGeometry>
        </mxCell>
        <mxCell id="78s66oipbBA8OXlamapA-19" value="true" style="rhombus;whiteSpace=wrap;html=1;" parent="1" vertex="1">
          <mxGeometry x="425" y="850" width="90" height="80" as="geometry" />
        </mxCell>
        <mxCell id="78s66oipbBA8OXlamapA-23" style="edgeStyle=orthogonalEdgeStyle;rounded=0;orthogonalLoop=1;jettySize=auto;html=1;exitX=0.5;exitY=1;exitDx=0;exitDy=0;" parent="1" source="78s66oipbBA8OXlamapA-22" target="78s66oipbBA8OXlamapA-24" edge="1">
          <mxGeometry relative="1" as="geometry">
            <mxPoint x="469.5882352941177" y="1090" as="targetPoint" />
          </mxGeometry>
        </mxCell>
        <mxCell id="78s66oipbBA8OXlamapA-22" value="ret, frame = cap.read()" style="rounded=0;whiteSpace=wrap;html=1;" parent="1" vertex="1">
          <mxGeometry x="400" y="980" width="140" height="60" as="geometry" />
        </mxCell>
        <mxCell id="78s66oipbBA8OXlamapA-25" style="edgeStyle=orthogonalEdgeStyle;rounded=0;orthogonalLoop=1;jettySize=auto;html=1;exitX=1;exitY=0.5;exitDx=0;exitDy=0;" parent="1" source="78s66oipbBA8OXlamapA-24" target="78s66oipbBA8OXlamapA-26" edge="1">
          <mxGeometry relative="1" as="geometry">
            <mxPoint x="560" y="1180" as="targetPoint" />
          </mxGeometry>
        </mxCell>
        <mxCell id="78s66oipbBA8OXlamapA-28" style="edgeStyle=orthogonalEdgeStyle;rounded=0;orthogonalLoop=1;jettySize=auto;html=1;exitX=0;exitY=0.5;exitDx=0;exitDy=0;entryX=0.5;entryY=0;entryDx=0;entryDy=0;" parent="1" source="78s66oipbBA8OXlamapA-24" target="78s66oipbBA8OXlamapA-27" edge="1">
          <mxGeometry relative="1" as="geometry">
            <Array as="points">
              <mxPoint x="340" y="1130" />
              <mxPoint x="340" y="1250" />
              <mxPoint x="470" y="1250" />
            </Array>
          </mxGeometry>
        </mxCell>
        <mxCell id="78s66oipbBA8OXlamapA-24" value="not ret" style="rhombus;whiteSpace=wrap;html=1;" parent="1" vertex="1">
          <mxGeometry x="425" y="1090" width="90" height="80" as="geometry" />
        </mxCell>
        <mxCell id="78s66oipbBA8OXlamapA-75" style="edgeStyle=orthogonalEdgeStyle;rounded=0;orthogonalLoop=1;jettySize=auto;html=1;exitX=0.5;exitY=1;exitDx=0;exitDy=0;entryX=0.5;entryY=0;entryDx=0;entryDy=0;" parent="1" source="78s66oipbBA8OXlamapA-26" target="78s66oipbBA8OXlamapA-50" edge="1">
          <mxGeometry relative="1" as="geometry">
            <Array as="points">
              <mxPoint x="615" y="2080" />
              <mxPoint x="470" y="2080" />
            </Array>
          </mxGeometry>
        </mxCell>
        <mxCell id="78s66oipbBA8OXlamapA-26" value="&quot;Не удалось получит кадр с камеры&quot;" style="rounded=0;whiteSpace=wrap;html=1;" parent="1" vertex="1">
          <mxGeometry x="505" y="1180" width="220" height="60" as="geometry" />
        </mxCell>
        <mxCell id="78s66oipbBA8OXlamapA-31" style="edgeStyle=orthogonalEdgeStyle;rounded=0;orthogonalLoop=1;jettySize=auto;html=1;exitX=0.5;exitY=1;exitDx=0;exitDy=0;entryX=0.5;entryY=0;entryDx=0;entryDy=0;" parent="1" source="78s66oipbBA8OXlamapA-27" target="78s66oipbBA8OXlamapA-29" edge="1">
          <mxGeometry relative="1" as="geometry" />
        </mxCell>
        <mxCell id="78s66oipbBA8OXlamapA-27" value="decoded_objects = decode(frame)" style="rounded=0;whiteSpace=wrap;html=1;" parent="1" vertex="1">
          <mxGeometry x="356.25" y="1300" width="227.5" height="40" as="geometry" />
        </mxCell>
        <mxCell id="78s66oipbBA8OXlamapA-34" style="edgeStyle=orthogonalEdgeStyle;rounded=0;orthogonalLoop=1;jettySize=auto;html=1;exitX=0.5;exitY=1;exitDx=0;exitDy=0;entryX=0.5;entryY=0;entryDx=0;entryDy=0;" parent="1" source="78s66oipbBA8OXlamapA-29" target="78s66oipbBA8OXlamapA-33" edge="1">
          <mxGeometry relative="1" as="geometry" />
        </mxCell>
        <mxCell id="78s66oipbBA8OXlamapA-49" style="edgeStyle=orthogonalEdgeStyle;rounded=0;orthogonalLoop=1;jettySize=auto;html=1;exitX=1;exitY=0.5;exitDx=0;exitDy=0;entryX=0.5;entryY=0;entryDx=0;entryDy=0;" parent="1" edge="1">
          <mxGeometry relative="1" as="geometry">
            <mxPoint x="550" y="1420" as="sourcePoint" />
            <mxPoint x="470" y="1980" as="targetPoint" />
            <Array as="points">
              <mxPoint x="590" y="1420" />
              <mxPoint x="590" y="1960" />
              <mxPoint x="470" y="1960" />
            </Array>
          </mxGeometry>
        </mxCell>
        <mxCell id="78s66oipbBA8OXlamapA-29" value="obj in decoded_ objects" style="shape=hexagon;perimeter=hexagonPerimeter2;whiteSpace=wrap;html=1;fixedSize=1;" parent="1" vertex="1">
          <mxGeometry x="390" y="1400" width="160" height="40" as="geometry" />
        </mxCell>
        <mxCell id="78s66oipbBA8OXlamapA-42" style="edgeStyle=orthogonalEdgeStyle;rounded=0;orthogonalLoop=1;jettySize=auto;html=1;exitX=0.5;exitY=1;exitDx=0;exitDy=0;entryX=0.5;entryY=0;entryDx=0;entryDy=0;" parent="1" source="78s66oipbBA8OXlamapA-32" target="78s66oipbBA8OXlamapA-37" edge="1">
          <mxGeometry relative="1" as="geometry" />
        </mxCell>
        <mxCell id="78s66oipbBA8OXlamapA-32" value="&quot;QR-код найден&quot;" style="rounded=0;whiteSpace=wrap;html=1;" parent="1" vertex="1">
          <mxGeometry x="410" y="1580" width="120" height="60" as="geometry" />
        </mxCell>
        <mxCell id="78s66oipbBA8OXlamapA-35" style="edgeStyle=orthogonalEdgeStyle;rounded=0;orthogonalLoop=1;jettySize=auto;html=1;exitX=0.5;exitY=1;exitDx=0;exitDy=0;entryX=0.5;entryY=0;entryDx=0;entryDy=0;" parent="1" source="78s66oipbBA8OXlamapA-33" target="78s66oipbBA8OXlamapA-32" edge="1">
          <mxGeometry relative="1" as="geometry" />
        </mxCell>
        <mxCell id="78s66oipbBA8OXlamapA-33" value="qr_data = obj.data.decode(&quot;utf-8&quot;)" style="rounded=0;whiteSpace=wrap;html=1;" parent="1" vertex="1">
          <mxGeometry x="370" y="1480" width="200" height="60" as="geometry" />
        </mxCell>
        <mxCell id="78s66oipbBA8OXlamapA-38" style="edgeStyle=orthogonalEdgeStyle;rounded=0;orthogonalLoop=1;jettySize=auto;html=1;exitX=0.5;exitY=1;exitDx=0;exitDy=0;" parent="1" source="78s66oipbBA8OXlamapA-37" target="78s66oipbBA8OXlamapA-39" edge="1">
          <mxGeometry relative="1" as="geometry">
            <mxPoint x="469.5882352941177" y="1830" as="targetPoint" />
          </mxGeometry>
        </mxCell>
        <mxCell id="78s66oipbBA8OXlamapA-37" value="f&quot;Данные: {qr_data}&quot;" style="rounded=0;whiteSpace=wrap;html=1;" parent="1" vertex="1">
          <mxGeometry x="410" y="1670" width="120" height="60" as="geometry" />
        </mxCell>
        <mxCell id="78s66oipbBA8OXlamapA-41" style="edgeStyle=orthogonalEdgeStyle;rounded=0;orthogonalLoop=1;jettySize=auto;html=1;exitX=0.5;exitY=1;exitDx=0;exitDy=0;entryX=0.5;entryY=0;entryDx=0;entryDy=0;" parent="1" source="78s66oipbBA8OXlamapA-39" target="78s66oipbBA8OXlamapA-40" edge="1">
          <mxGeometry relative="1" as="geometry" />
        </mxCell>
        <mxCell id="78s66oipbBA8OXlamapA-39" value="f&quot;Тин: {obj.type}&quot;" style="rounded=0;whiteSpace=wrap;html=1;" parent="1" vertex="1">
          <mxGeometry x="409.9982352941177" y="1770" width="120" height="60" as="geometry" />
        </mxCell>
        <mxCell id="78s66oipbBA8OXlamapA-40" value="recognized_texts = qr_data" style="rounded=0;whiteSpace=wrap;html=1;" parent="1" vertex="1">
          <mxGeometry x="385" y="1870" width="170" height="60" as="geometry" />
        </mxCell>
        <mxCell id="78s66oipbBA8OXlamapA-82" style="edgeStyle=orthogonalEdgeStyle;rounded=0;orthogonalLoop=1;jettySize=auto;html=1;exitX=1;exitY=0.5;exitDx=0;exitDy=0;" parent="1" source="78s66oipbBA8OXlamapA-46" edge="1">
          <mxGeometry relative="1" as="geometry">
            <mxPoint x="470" y="2110" as="targetPoint" />
            <Array as="points">
              <mxPoint x="570" y="2020" />
              <mxPoint x="570" y="2080" />
              <mxPoint x="470" y="2080" />
            </Array>
          </mxGeometry>
        </mxCell>
        <mxCell id="78s66oipbBA8OXlamapA-46" value="recognized_texts != &quot;&quot;" style="rhombus;whiteSpace=wrap;html=1;" parent="1" vertex="1">
          <mxGeometry x="390" y="1980" width="160" height="80" as="geometry" />
        </mxCell>
        <mxCell id="78s66oipbBA8OXlamapA-55" style="edgeStyle=orthogonalEdgeStyle;rounded=0;orthogonalLoop=1;jettySize=auto;html=1;exitX=0.5;exitY=1;exitDx=0;exitDy=0;entryX=0.5;entryY=0;entryDx=0;entryDy=0;" parent="1" source="78s66oipbBA8OXlamapA-50" target="78s66oipbBA8OXlamapA-51" edge="1">
          <mxGeometry relative="1" as="geometry" />
        </mxCell>
        <mxCell id="78s66oipbBA8OXlamapA-50" value="cap.release()" style="rounded=0;whiteSpace=wrap;html=1;" parent="1" vertex="1">
          <mxGeometry x="410" y="2110" width="120" height="60" as="geometry" />
        </mxCell>
        <mxCell id="78s66oipbBA8OXlamapA-56" style="edgeStyle=orthogonalEdgeStyle;rounded=0;orthogonalLoop=1;jettySize=auto;html=1;exitX=0.5;exitY=1;exitDx=0;exitDy=0;entryX=0.5;entryY=0;entryDx=0;entryDy=0;" parent="1" source="78s66oipbBA8OXlamapA-51" target="78s66oipbBA8OXlamapA-53" edge="1">
          <mxGeometry relative="1" as="geometry" />
        </mxCell>
        <mxCell id="78s66oipbBA8OXlamapA-51" value="cv2.destroyAllWindows()" style="rounded=0;whiteSpace=wrap;html=1;" parent="1" vertex="1">
          <mxGeometry x="390" y="2210" width="160" height="60" as="geometry" />
        </mxCell>
        <mxCell id="78s66oipbBA8OXlamapA-53" value="return recognized_texts" style="ellipse;whiteSpace=wrap;html=1;" parent="1" vertex="1">
          <mxGeometry x="380" y="2300" width="180" height="60" as="geometry" />
        </mxCell>
        <mxCell id="78s66oipbBA8OXlamapA-81" value="" style="shape=waypoint;sketch=0;fillStyle=solid;size=6;pointerEvents=1;points=[];fillColor=none;resizable=0;rotatable=0;perimeter=centerPerimeter;snapToPoint=1;" parent="1" vertex="1">
          <mxGeometry x="560" y="2070" width="20" height="20" as="geometry" />
        </mxCell>
        <mxCell id="eUgN0fjLOR-l-0KFzFAm-2" value="" style="endArrow=none;html=1;rounded=0;entryX=0;entryY=0.5;entryDx=0;entryDy=0;" edge="1" parent="1" target="78s66oipbBA8OXlamapA-46">
          <mxGeometry width="50" height="50" relative="1" as="geometry">
            <mxPoint x="280" y="2020" as="sourcePoint" />
            <mxPoint x="260" y="2070" as="targetPoint" />
          </mxGeometry>
        </mxCell>
        <mxCell id="eUgN0fjLOR-l-0KFzFAm-3" value="" style="endArrow=none;html=1;rounded=0;" edge="1" parent="1">
          <mxGeometry width="50" height="50" relative="1" as="geometry">
            <mxPoint x="280" y="2020" as="sourcePoint" />
            <mxPoint x="280" y="890" as="targetPoint" />
          </mxGeometry>
        </mxCell>
        <mxCell id="eUgN0fjLOR-l-0KFzFAm-4" value="" style="endArrow=none;html=1;rounded=0;entryX=0;entryY=0.5;entryDx=0;entryDy=0;" edge="1" parent="1" target="78s66oipbBA8OXlamapA-19">
          <mxGeometry width="50" height="50" relative="1" as="geometry">
            <mxPoint x="280" y="890" as="sourcePoint" />
            <mxPoint x="380" y="870" as="targetPoint" />
          </mxGeometry>
        </mxCell>
        <mxCell id="eUgN0fjLOR-l-0KFzFAm-9" value="" style="endArrow=none;html=1;rounded=0;exitX=1;exitY=0.5;exitDx=0;exitDy=0;" edge="1" parent="1" source="78s66oipbBA8OXlamapA-3">
          <mxGeometry width="50" height="50" relative="1" as="geometry">
            <mxPoint x="630" y="290" as="sourcePoint" />
            <mxPoint x="780" y="250" as="targetPoint" />
          </mxGeometry>
        </mxCell>
        <mxCell id="eUgN0fjLOR-l-0KFzFAm-15" value="" style="endArrow=none;html=1;rounded=0;exitX=1;exitY=0.5;exitDx=0;exitDy=0;" edge="1" parent="1" source="78s66oipbBA8OXlamapA-13">
          <mxGeometry width="50" height="50" relative="1" as="geometry">
            <mxPoint x="810" y="690" as="sourcePoint" />
            <mxPoint x="780" y="675" as="targetPoint" />
          </mxGeometry>
        </mxCell>
        <mxCell id="eUgN0fjLOR-l-0KFzFAm-16" value="" style="endArrow=none;html=1;rounded=0;" edge="1" parent="1">
          <mxGeometry width="50" height="50" relative="1" as="geometry">
            <mxPoint x="780" y="670" as="sourcePoint" />
            <mxPoint x="780" y="250" as="targetPoint" />
          </mxGeometry>
        </mxCell>
        <mxCell id="eUgN0fjLOR-l-0KFzFAm-18" value="" style="endArrow=none;html=1;rounded=0;exitX=1;exitY=0.5;exitDx=0;exitDy=0;" edge="1" parent="1" source="78s66oipbBA8OXlamapA-53">
          <mxGeometry width="50" height="50" relative="1" as="geometry">
            <mxPoint x="675" y="2340" as="sourcePoint" />
            <mxPoint x="780" y="2330" as="targetPoint" />
          </mxGeometry>
        </mxCell>
        <mxCell id="eUgN0fjLOR-l-0KFzFAm-19" value="" style="endArrow=none;html=1;rounded=0;" edge="1" parent="1">
          <mxGeometry width="50" height="50" relative="1" as="geometry">
            <mxPoint x="780" y="2330" as="sourcePoint" />
            <mxPoint x="780" y="250" as="targetPoint" />
          </mxGeometry>
        </mxCell>
        <mxCell id="eUgN0fjLOR-l-0KFzFAm-20" value="" style="endArrow=none;html=1;rounded=0;entryX=0.5;entryY=1;entryDx=0;entryDy=0;" edge="1" parent="1" target="78s66oipbBA8OXlamapA-40">
          <mxGeometry width="50" height="50" relative="1" as="geometry">
            <mxPoint x="470" y="1950" as="sourcePoint" />
            <mxPoint x="350" y="1940" as="targetPoint" />
          </mxGeometry>
        </mxCell>
        <mxCell id="eUgN0fjLOR-l-0KFzFAm-21" value="" style="endArrow=none;html=1;rounded=0;" edge="1" parent="1">
          <mxGeometry width="50" height="50" relative="1" as="geometry">
            <mxPoint x="350" y="1950" as="sourcePoint" />
            <mxPoint x="470" y="1950" as="targetPoint" />
          </mxGeometry>
        </mxCell>
        <mxCell id="eUgN0fjLOR-l-0KFzFAm-22" value="" style="endArrow=none;html=1;rounded=0;" edge="1" parent="1">
          <mxGeometry width="50" height="50" relative="1" as="geometry">
            <mxPoint x="350" y="1950" as="sourcePoint" />
            <mxPoint x="350" y="1420" as="targetPoint" />
          </mxGeometry>
        </mxCell>
        <mxCell id="eUgN0fjLOR-l-0KFzFAm-23" value="" style="endArrow=none;html=1;rounded=0;entryX=0;entryY=0.5;entryDx=0;entryDy=0;" edge="1" parent="1" target="78s66oipbBA8OXlamapA-29">
          <mxGeometry width="50" height="50" relative="1" as="geometry">
            <mxPoint x="350" y="1420" as="sourcePoint" />
            <mxPoint x="420" y="1360" as="targetPoint" />
          </mxGeometry>
        </mxCell>
        <mxCell id="eUgN0fjLOR-l-0KFzFAm-24" value="" style="shape=waypoint;sketch=0;fillStyle=solid;size=6;pointerEvents=1;points=[];fillColor=none;resizable=0;rotatable=0;perimeter=centerPerimeter;snapToPoint=1;" vertex="1" parent="1">
          <mxGeometry x="770" y="665" width="20" height="20" as="geometry" />
        </mxCell>
      </root>
    </mxGraphModel>
  </diagram>
</mxfile>
